<svg width="400" height="400" viewBox="0 0 400 400" fill="none" xmlns="http://www.w3.org/2000/svg">
<rect width="400" height="400" fill="#1E1E1E"/>
<g clip-path="url(#clip0_0_1)">
<rect width="400" height="400" fill="#FF0101"/>
<path d="M30.4536 118.475C42.862 110.734 78.4358 99.4504 121.464 116.246L103.527 106.681C138.053 94.3746 214.279 73.3947 242.976 87.9281L242.989 91.7779C251.208 95.6003 269.148 105.935 275.153 116.694L297.534 116.62C289.288 111.087 273.157 100.963 262.302 96.1761C259.37 95.1057 256.856 94.2594 254.932 93.6629C256.834 93.9835 259.376 94.886 262.302 96.1761C273.411 100.232 290.524 107.505 304.248 116.597C318.158 111.738 354.659 109.884 389.381 141.336C378.675 137.522 356.52 130.859 353.548 134.719C355.797 137.92 359.854 146.44 358.092 154.916C355.567 143.374 345.742 120.693 326.649 122.297C319.184 121.039 302.333 123.918 294.646 145.503C294.882 141.652 296.244 132.601 299.807 127.199C295.845 132.025 286.877 142.449 282.71 145.543C277.5 149.41 275.268 151.343 268.554 151.365L246.919 151.437L271.525 147.505C274.257 146.213 280.311 142.279 282.681 136.881L282.674 134.956L178.235 137.23L187.158 128.538L216.254 128.441L185.66 126.618L157.381 147.887L222.299 151.52L135.758 151.809L151.412 147.907L173.736 130.508L135.688 130.635L121.564 146.082L135.675 126.785C137.164 125.818 139.69 122.73 137.884 118.116L178.177 119.906L125.182 112.384C128.667 113.334 135.341 116.199 134.16 120.053C132.684 124.87 128.954 124.883 125.224 124.895L99.8582 124.98C104.097 128.174 112.734 138.027 113.377 151.884C109.364 141.631 96.2662 121.72 75.9816 124.098C67.5275 124.447 49.445 130.924 44.7475 154.038C44.978 148.584 46.628 136.323 51.3847 130.917L30.4955 130.987L23.8133 140.634L30.4536 118.475Z" fill="white"/>
<path d="M22.3179 139.677L28.9615 118.48L21.5043 119.468L22.3179 139.677Z" fill="white"/>
<path d="M233.361 112.984C229.605 105.297 260.965 112.892 260.965 112.892L257.994 116.752L253.517 116.767C253.517 116.767 252.778 118.694 251.289 119.661C249.8 120.629 237.117 120.671 233.361 112.984Z" fill="#FF0101"/>
<g filter="url(#filter0_d_0_1)">
<path d="M120.768 262.511L121.635 297.289L114.228 297.314L114.069 249.783L123.663 249.751L130.01 278.605L136.194 249.709L145.757 249.677L145.916 297.208L138.478 297.233L139.114 262.918L133.271 291.313L126.865 291.334L120.768 262.511ZM170.455 272.313C170.449 270.501 170.589 268.782 170.875 267.156C171.162 265.509 171.709 264.08 172.517 262.869C173.326 261.637 174.447 260.665 175.883 259.951C177.338 259.217 179.233 258.847 181.566 258.839C183.9 258.831 185.786 259.189 187.226 259.914C188.687 260.638 189.826 261.613 190.642 262.84C191.459 264.066 192.005 265.491 192.282 267.115C192.579 268.719 192.73 270.416 192.736 272.208L192.776 284.27C192.783 286.083 192.642 287.802 192.356 289.428C192.091 291.054 191.564 292.483 190.777 293.714C189.989 294.925 188.878 295.898 187.443 296.632C186.008 297.345 184.123 297.705 181.79 297.713C179.436 297.721 177.529 297.373 176.068 296.67C174.607 295.946 173.458 294.97 172.621 293.744C171.804 292.517 171.247 291.092 170.95 289.468C170.653 287.844 170.501 286.136 170.495 284.345L170.455 272.313ZM181.59 265.839C180.673 265.842 179.955 266.021 179.435 266.377C178.937 266.733 178.553 267.203 178.284 267.787C178.036 268.371 177.882 269.039 177.822 269.789C177.762 270.539 177.733 271.32 177.736 272.133L177.777 284.445C177.78 285.216 177.803 285.976 177.847 286.726C177.912 287.455 178.071 288.111 178.322 288.693C178.574 289.276 178.961 289.754 179.484 290.127C180.006 290.48 180.735 290.654 181.673 290.651C182.569 290.648 183.266 290.469 183.765 290.113C184.284 289.757 184.668 289.297 184.916 288.734C185.185 288.15 185.35 287.482 185.41 286.732C185.47 285.982 185.498 285.201 185.496 284.388L185.455 272.107C185.452 271.336 185.418 270.576 185.353 269.826C185.309 269.076 185.161 268.41 184.909 267.828C184.657 267.224 184.27 266.746 183.748 266.394C183.226 266.021 182.506 265.836 181.59 265.839ZM225.682 247.285L225.722 259.347L232.003 259.326L232.026 266.108L225.745 266.129L225.808 285.128C225.812 286.128 225.846 286.982 225.911 287.691C225.975 288.399 226.113 288.982 226.323 289.439C226.533 289.876 226.825 290.198 227.201 290.405C227.577 290.591 228.077 290.683 228.702 290.681C229.327 290.679 229.889 290.636 230.389 290.551C230.889 290.445 231.336 290.329 231.732 290.202C232.127 290.055 232.47 289.908 232.761 289.761C233.053 289.615 233.312 289.478 233.541 289.353L234.03 295.445C233.365 295.947 232.502 296.429 231.441 296.891C230.38 297.332 229.089 297.555 227.569 297.56C225.652 297.567 224.099 297.28 222.909 296.701C221.741 296.1 220.832 295.26 220.182 294.179C219.533 293.097 219.091 291.797 218.857 290.277C218.622 288.736 218.502 287.028 218.496 285.153L218.432 266.153L214.526 266.166L214.503 259.385L218.41 259.372L218.369 247.309L225.682 247.285ZM255.012 272.031C255.006 270.218 255.146 268.499 255.432 266.873C255.719 265.226 256.266 263.797 257.074 262.586C257.883 261.354 259.004 260.382 260.44 259.669C261.895 258.935 263.79 258.564 266.123 258.556C268.457 258.548 270.343 258.906 271.783 259.631C273.244 260.355 274.383 261.33 275.199 262.557C276.016 263.783 276.562 265.209 276.839 266.833C277.136 268.436 277.287 270.133 277.293 271.925L277.334 283.987C277.34 285.8 277.199 287.519 276.913 289.145C276.648 290.771 276.121 292.2 275.334 293.432C274.546 294.643 273.435 295.615 272 296.349C270.565 297.062 268.68 297.423 266.347 297.43C263.993 297.438 262.086 297.091 260.625 296.387C259.164 295.663 258.015 294.687 257.178 293.461C256.361 292.235 255.804 290.809 255.507 289.185C255.21 287.561 255.058 285.854 255.052 284.062L255.012 272.031ZM266.147 265.556C265.23 265.559 264.512 265.738 263.992 266.094C263.494 266.45 263.11 266.92 262.841 267.504C262.593 268.089 262.439 268.756 262.379 269.506C262.319 270.256 262.29 271.038 262.293 271.85L262.334 284.163C262.337 284.933 262.36 285.694 262.404 286.444C262.469 287.173 262.628 287.828 262.879 288.411C263.131 288.993 263.518 289.471 264.041 289.844C264.563 290.197 265.292 290.371 266.23 290.368C267.126 290.365 267.823 290.186 268.322 289.83C268.841 289.474 269.225 289.015 269.473 288.451C269.742 287.867 269.907 287.2 269.967 286.45C270.027 285.699 270.055 284.918 270.053 284.105L270.012 271.824C270.009 271.053 269.975 270.293 269.91 269.543C269.866 268.794 269.718 268.127 269.466 267.545C269.214 266.942 268.827 266.464 268.305 266.111C267.783 265.738 267.063 265.553 266.147 265.556ZM317.117 266.635C317.034 266.615 316.888 266.553 316.679 266.449C316.47 266.346 316.199 266.232 315.865 266.108C315.531 265.985 315.146 265.882 314.708 265.8C314.291 265.697 313.822 265.647 313.301 265.648L313.27 265.648C312.416 265.651 311.708 265.851 311.147 266.249C310.607 266.647 310.181 267.169 309.871 267.816C309.56 268.442 309.344 269.151 309.222 269.943C309.099 270.735 309.029 271.517 309.011 272.288L309.092 296.662L301.842 296.687L301.717 259.124L308.967 259.1L308.98 263.006C309.434 261.651 310.117 260.544 311.031 259.687C311.945 258.83 313.173 258.399 314.714 258.393L314.714 258.425C314.714 258.404 314.725 258.393 314.746 258.393C315.037 258.392 315.402 258.443 315.84 258.546C316.299 258.628 316.705 258.793 317.06 259.042L317.117 266.635ZM359.459 285.525C359.465 287.275 359.283 288.87 358.913 290.308C358.542 291.726 357.921 292.947 357.05 293.971C356.199 294.974 355.077 295.759 353.683 296.326C352.289 296.872 350.571 297.149 348.529 297.156C346.363 297.163 344.559 296.867 343.12 296.267C341.701 295.668 340.563 294.828 339.705 293.748C338.868 292.646 338.27 291.325 337.911 289.785C337.572 288.223 337.4 286.484 337.393 284.568L344.675 284.543C344.677 285.293 344.732 286.012 344.838 286.699C344.944 287.365 345.134 287.959 345.406 288.479C345.7 288.978 346.086 289.372 346.567 289.662C347.047 289.952 347.662 290.096 348.412 290.093C349.016 290.091 349.537 289.996 349.973 289.807C350.41 289.618 350.764 289.356 351.033 289.022C351.324 288.688 351.531 288.312 351.655 287.895C351.778 287.457 351.839 286.988 351.837 286.488C351.835 285.717 351.624 285.02 351.205 284.397C350.807 283.773 350.274 283.202 349.606 282.683C348.958 282.144 348.217 281.625 347.382 281.128C346.547 280.631 345.681 280.123 344.783 279.606C343.906 279.067 343.05 278.486 342.215 277.864C341.379 277.242 340.627 276.547 339.958 275.778C339.309 274.988 338.775 274.105 338.355 273.127C337.956 272.128 337.754 270.983 337.75 269.692C337.744 267.858 337.926 266.233 338.296 264.815C338.666 263.397 339.277 262.207 340.128 261.246C340.979 260.285 342.091 259.552 343.464 259.047C344.838 258.543 346.535 258.287 348.555 258.28C350.139 258.275 351.577 258.447 352.87 258.797C354.163 259.147 355.269 259.779 356.189 260.692C357.129 261.585 357.852 262.801 358.357 264.341C358.862 265.881 359.119 267.849 359.127 270.245L351.845 270.238C351.844 269.655 351.8 269.072 351.715 268.489C351.629 267.885 351.471 267.354 351.241 266.896C351.01 266.418 350.675 266.034 350.237 265.743C349.819 265.432 349.266 265.278 348.579 265.28C347.954 265.282 347.413 265.388 346.955 265.598C346.518 265.808 346.154 266.08 345.864 266.414C345.594 266.749 345.398 267.135 345.274 267.573C345.15 267.99 345.089 268.407 345.091 268.823C345.094 269.761 345.451 270.593 346.162 271.32C346.872 272.026 347.76 272.71 348.825 273.373C349.889 274.036 351.038 274.72 352.269 275.424C353.501 276.128 354.649 276.948 355.715 277.881C356.78 278.795 357.669 279.865 358.382 281.091C359.094 282.318 359.453 283.796 359.459 285.525Z" fill="white"/>
</g>
<path d="M64.465 178.038L108.684 177.89L108.684 178.047C108.217 178.517 101.98 182.34 89.9723 189.515C88.5174 190.562 87.5817 191.086 87.165 191.087L65.1339 191.161C59.3006 191.18 54.6257 194.946 51.1091 202.458C47.2747 208.382 45.3598 212.035 45.3645 213.415L45.3665 214.04C45.3725 215.811 46.5733 216.692 48.9692 216.684L79.9065 216.58L80.22 216.892C79.5978 217.727 77.2161 221.954 73.0749 229.572L53.2318 229.795L36.6694 229.85C29.6902 229.873 26.1935 227.75 26.1793 223.479L26.1777 223.01C26.1679 220.094 27.7694 216.182 30.9822 211.275C38.4901 198.047 43.0994 190.219 44.81 187.791C48.0253 183.64 53.0152 180.602 59.7796 178.679C61.6011 178.256 63.1629 178.042 64.465 178.038ZM150.668 177.75C156.267 177.731 159.866 179.386 161.466 182.714L161.784 184.588L161.786 185.057C161.793 187.27 159.829 191.6 155.892 198.045C144.319 218.474 138.313 228.911 137.871 229.355L123.496 229.404L130.485 216.568L108.297 216.642C107.882 217.06 105.449 221.339 100.997 229.479L100.841 229.636L86.1535 229.685L86.1529 229.528C100.34 204.351 108.107 190.783 109.454 188.825C113.424 184.437 116.592 181.77 118.959 180.825C121.948 179.174 125.07 178.226 128.325 177.981L150.668 177.75ZM115.443 203.962L137.63 203.887C141.36 198.042 143.224 194.754 143.222 194.025L143.22 193.4C143.214 191.733 141.441 190.906 137.899 190.918L130.555 190.942C124.774 190.962 120.358 194.153 117.306 200.518C116.063 202.527 115.442 203.675 115.443 203.962ZM179.995 177.339L214.682 177.223C221.192 177.202 225.001 179.22 226.108 183.279L226.268 184.372C226.276 186.664 224.053 191.515 219.598 198.926C217.037 204.091 214.236 207.381 211.194 208.798L207.134 209.749L207.135 209.905C209.218 209.898 210.471 210.883 210.895 212.861L210.896 213.33C210.9 214.346 208.416 219.093 203.444 227.574L202.512 229.139L193.918 229.324L187.981 229.344L187.667 229.033L194.812 216.196L172.937 216.269L165.324 229.264L150.793 229.312C151.413 227.774 155.917 219.686 164.306 205.048C174.324 187.02 179.553 177.784 179.995 177.339ZM180.238 203.432L192.582 203.391C199.639 203.368 203.748 201.739 204.909 198.506C206.463 195.793 207.238 194.019 207.235 193.186L207.232 192.092C206.603 191.053 205.351 190.536 203.476 190.542L187.539 190.595C182.67 198.763 180.237 203.042 180.238 203.432ZM244.635 177.123L279.322 177.007C285.833 176.985 289.641 179.004 290.749 183.063L290.909 184.156C290.916 186.448 288.693 191.299 284.238 198.71C281.678 203.874 278.876 207.165 275.834 208.582L271.775 209.533L271.775 209.689C273.858 209.682 275.112 210.667 275.535 212.645L275.537 213.114C275.54 214.129 273.056 218.877 268.084 227.358L267.152 228.923L258.559 229.108L252.621 229.128L252.308 228.817L259.452 215.98L237.577 216.053L229.965 229.048L215.433 229.096C216.053 227.558 220.558 219.47 228.946 204.832C238.964 186.804 244.194 177.567 244.635 177.123ZM244.878 203.216L257.222 203.175C264.279 203.151 268.388 201.523 269.55 198.29C271.103 195.576 271.878 193.803 271.875 192.97L271.872 191.876C271.243 190.836 269.992 190.32 268.117 190.326L252.179 190.379C247.311 198.547 244.877 202.826 244.878 203.216ZM323.496 177.484L323.497 177.797L294.761 228.831L294.605 228.988L280.387 229.035L280.23 228.879L280.074 228.88L308.652 177.534L323.496 177.484ZM350.792 177.081L372.51 177.008C377.901 176.99 381.188 178.906 382.373 182.756L382.533 183.85C382.541 186.271 380.473 190.862 376.329 197.62C369.47 210.117 365.327 217.319 363.901 219.225C360.346 223.091 357.022 225.602 353.926 226.758C351.014 228.122 346.746 228.813 341.121 228.832L321.433 228.898C316.98 228.913 314.007 227.516 312.513 224.709C312.197 223.72 312.038 222.888 312.036 222.211C312.027 219.632 314.458 214.468 319.328 206.717C325.386 195.916 329.27 189.392 330.981 187.147C336.949 180.46 343.552 177.105 350.792 177.081ZM331.926 212.769L331.927 213.081C331.933 214.852 333.29 215.733 335.999 215.724L344.905 215.694C350.217 215.677 354.424 212.121 357.526 205.027C361.566 198.477 363.584 194.512 363.58 193.132L363.578 192.663C363.574 191.335 362.425 190.558 360.133 190.331L350.602 190.363C345.471 190.38 340.953 194.353 337.048 202.283C333.629 207.789 331.921 211.285 331.926 212.769Z" fill="white"/>
</g>
<defs>
<filter id="filter0_d_0_1" x="114.062" y="246.838" width="248.436" height="56.1011" filterUnits="userSpaceOnUse" color-interpolation-filters="sRGB">
<feFlood flood-opacity="0" result="BackgroundImageFix"/>
<feColorMatrix in="SourceAlpha" type="matrix" values="0 0 0 0 0 0 0 0 0 0 0 0 0 0 0 0 0 0 127 0" result="hardAlpha"/>
<feOffset dx="3" dy="5"/>
<feComposite in2="hardAlpha" operator="out"/>
<feColorMatrix type="matrix" values="0 0 0 0 1 0 0 0 0 1 0 0 0 0 1 0 0 0 0.25 0"/>
<feBlend mode="normal" in2="BackgroundImageFix" result="effect1_dropShadow_0_1"/>
<feBlend mode="normal" in="SourceGraphic" in2="effect1_dropShadow_0_1" result="shape"/>
</filter>
<clipPath id="clip0_0_1">
<rect width="400" height="400" fill="white"/>
</clipPath>
</defs>
</svg>
